<?xml version="1.0" encoding="UTF-8" standalone="no"?>
<!-- Created with Inkscape (http://www.inkscape.org/) -->

<svg
   width="210mm"
   height="297mm"
   viewBox="0 0 210 297"
   version="1.1"
   id="svg1"
   xml:space="preserve"
   inkscape:version="1.3.2 (091e20e, 2023-11-25, custom)"
   sodipodi:docname="seko'slogo.svg"
   xmlns:inkscape="http://www.inkscape.org/namespaces/inkscape"
   xmlns:sodipodi="http://sodipodi.sourceforge.net/DTD/sodipodi-0.dtd"
   xmlns="http://www.w3.org/2000/svg"
   xmlns:svg="http://www.w3.org/2000/svg"><sodipodi:namedview
     id="namedview1"
     pagecolor="#ffffff"
     bordercolor="#000000"
     borderopacity="0.25"
     inkscape:showpageshadow="2"
     inkscape:pageopacity="0.0"
     inkscape:pagecheckerboard="0"
     inkscape:deskcolor="#d1d1d1"
     inkscape:document-units="mm"
     inkscape:zoom="0.44631734"
     inkscape:cx="397.69909"
     inkscape:cy="561.25984"
     inkscape:window-width="1366"
     inkscape:window-height="697"
     inkscape:window-x="-8"
     inkscape:window-y="-8"
     inkscape:window-maximized="1"
     inkscape:current-layer="layer1" /><defs
     id="defs1" /><g
     inkscape:label="Layer 1"
     inkscape:groupmode="layer"
     id="layer1"><path
       style="fill:#000000"
       d="m 126.46736,180.98815 c -0.32742,-0.13161 -0.59531,-0.42172 -0.59531,-0.64469 0,-0.51304 0.23556,-0.51368 0.8008,-0.002 0.58174,0.52646 1.27664,0.24203 1.49051,-0.61008 0.13569,-0.54066 0.0149,-0.80457 -0.5976,-1.30577 -0.42222,-0.34549 -1.03556,-0.85185 -1.36298,-1.12526 -1.24981,-1.04363 -0.44809,-3.19247 1.20866,-3.23957 0.86766,-0.0247 1.90959,0.66455 1.54931,1.02484 -0.10291,0.1029 -0.32799,0.0462 -0.50019,-0.12599 -0.49946,-0.49946 -1.47464,-0.37572 -1.66077,0.21073 -0.22516,0.70941 0.0615,1.14427 1.38736,2.10461 0.95769,0.69366 1.12448,0.95337 1.12448,1.75088 0,0.64143 -0.20457,1.14098 -0.64943,1.58584 -0.68234,0.68234 -1.20926,0.77275 -2.19484,0.3766 z m 4.28746,-0.3766 c -0.85831,-0.85831 -0.90754,-2.67791 -0.096,-3.54897 0.63198,-0.67835 2.10295,-0.70066 2.30356,-0.0349 0.0965,0.32029 0.052,0.33305 -0.23098,0.0661 -1.32934,-1.2541 -2.54754,1.64831 -1.3203,3.14569 0.44302,0.54054 0.585,0.5801 1.05474,0.29389 0.8277,-0.5043 1.02446,-0.37776 0.32224,0.20724 -0.82048,0.68354 -1.24776,0.65641 -2.03323,-0.12906 z m 17.60681,0.30745 c -0.39444,-0.19928 -0.7969,-0.74607 -0.997,-1.35455 -0.29101,-0.88498 -0.27346,-1.14732 0.1323,-1.97703 0.37375,-0.76427 0.63986,-0.97326 1.32332,-1.03923 1.94384,-0.18764 2.99947,2.60167 1.53779,4.06336 -0.73415,0.73414 -1.05426,0.78344 -1.99641,0.30745 z m 1.60642,-1.17055 c 0.6269,-1.89952 -0.75713,-4.04312 -1.59711,-2.47362 -0.67547,1.26213 0.002,3.90381 0.91118,3.55479 0.20726,-0.0795 0.51593,-0.56606 0.68593,-1.08117 z m 20.354,0.98336 c -0.42837,-0.42837 -0.52917,-0.88194 -0.52917,-2.38125 0,-1.4699 0.0819,-1.85208 0.39688,-1.85208 0.31001,0 0.39776,0.36193 0.40092,1.65364 0.005,1.86638 0.23261,2.40973 0.9537,2.2725 0.41849,-0.0796 0.51961,-0.40928 0.637,-2.07655 0.095,-1.34971 0.21049,-1.83175 0.36198,-1.5112 0.39745,0.84102 0.0469,3.65893 -0.5054,4.06279 -0.67668,0.4948 -1.09409,0.45397 -1.71591,-0.16785 z m -59.53125,-3.175 v -3.43958 h 1.71979 c 0.97014,0 1.71979,0.11533 1.71979,0.26458 0,0.14552 -0.5423,0.26459 -1.20512,0.26459 h -1.20512 l 0.0806,1.24088 c 0.0795,1.22289 0.0941,1.24111 1.00669,1.25677 0.50932,0.009 0.92604,0.12589 0.92604,0.26033 0,0.13444 -0.41672,0.25351 -0.92604,0.26458 l -0.92604,0.0201 -0.0788,1.65365 c -0.0684,1.43689 -0.14647,1.65365 -0.59531,1.65365 -0.48584,0 -0.51654,-0.20442 -0.51654,-3.43959 z m 4.49792,-0.26458 c 0,-3.1162 0.063,-3.70417 0.39687,-3.70417 0.3236,0 0.39688,0.44293 0.39688,2.39883 v 2.39882 l 0.7276,-0.0837 c 0.60946,-0.0701 0.74126,-0.22596 0.81171,-0.95968 0.0508,-0.52879 0.20807,-0.83493 0.39688,-0.77245 0.19781,0.0655 0.34101,0.89793 0.38961,2.26502 0.0641,1.80344 0.009,2.16152 -0.33073,2.16152 -0.25468,0 -0.40757,-0.24002 -0.40757,-0.63982 0,-1.04112 -0.28158,-1.47685 -0.95435,-1.47685 -0.56229,0 -0.63315,0.11845 -0.63315,1.05833 0,0.76435 -0.11025,1.05834 -0.39688,1.05834 -0.33388,0 -0.39687,-0.58797 -0.39687,-3.70417 z m 4.39393,3.28565 c -0.0883,-0.23018 -0.1606,-1.05388 -0.1606,-1.83044 0,-2.01058 0.14322,-2.24896 1.35123,-2.24896 0.56651,0 1.03002,0.12655 1.03002,0.28121 0,0.15467 -0.26789,0.24397 -0.59531,0.19844 -0.47787,-0.0664 -0.61183,0.0608 -0.67903,0.64483 -0.0674,0.58602 0.0227,0.7276 0.46302,0.7276 0.3007,0 0.54674,0.11906 0.54674,0.26459 0,0.14552 -0.23813,0.26458 -0.52917,0.26458 -0.42651,0 -0.52917,0.17639 -0.52917,0.90928 0,0.82757 0.0773,0.91886 0.8599,1.01599 0.67781,0.0841 0.59977,0.11568 -0.36857,0.14905 -0.90368,0.0312 -1.27092,-0.0683 -1.38906,-0.37617 z m 14.56787,0.24213 c -0.31109,-0.31109 -0.1927,-3.67021 0.14111,-4.00403 0.38312,-0.38311 2.06375,-0.42621 2.06375,-0.0529 0,0.14552 -0.29765,0.26459 -0.66145,0.26459 -0.52917,0 -0.66146,0.13229 -0.66146,0.66145 0,0.47837 0.14215,0.66146 0.51355,0.66146 0.28245,0 0.58714,0.11906 0.67707,0.26459 0.0927,0.15006 -0.12954,0.26458 -0.51355,0.26458 -0.59503,0 -0.67707,0.11018 -0.67707,0.90928 0,0.82757 0.0773,0.91886 0.85989,1.01599 0.6875,0.0853 0.61677,0.1152 -0.35277,0.14905 -0.66698,0.0233 -1.29205,-0.037 -1.38907,-0.13404 z m 3.5745,-2.00643 c -0.0433,-2.14472 -0.008,-2.3151 0.47583,-2.3151 0.36337,0 0.70412,0.38287 1.11854,1.25677 l 0.59599,1.25677 0.16464,-1.19062 c 0.13069,-0.9451 0.17726,-1.02695 0.22587,-0.39688 0.0337,0.43656 0.0959,1.15094 0.13836,1.5875 0.0901,0.92766 -0.0998,1.98438 -0.35659,1.98438 -0.0985,0 -0.59122,-0.80368 -1.0949,-1.78594 l -0.91578,-1.78594 -0.15262,1.85208 -0.15262,1.85209 z m 4.4512,0.21159 c 0,-1.59824 -0.0876,-2.02226 -0.46302,-2.24091 -0.36128,-0.21043 -0.18272,-0.27146 0.81265,-0.27774 1.15969,-0.007 1.23787,0.0298 0.85989,0.40773 -0.29796,0.29797 -0.41577,0.93521 -0.41577,2.24896 0,1.45311 -0.0823,1.83319 -0.39688,1.83319 -0.31726,0 -0.39687,-0.39542 -0.39687,-1.97123 z m 9.70139,1.79484 c -0.097,-0.097 -0.17639,-1.51258 -0.17639,-3.14569 0,-2.49149 0.0785,-3.06627 0.48795,-3.5719 0.36139,-0.44629 0.61875,-0.54622 0.99219,-0.38524 0.4624,0.19933 0.46582,0.22655 0.0412,0.3281 -0.62134,0.14862 -0.68348,2.4532 -0.0661,2.4532 0.21828,0 0.39687,0.11906 0.39687,0.26458 0,0.14552 -0.17859,0.26459 -0.39687,0.26459 -0.3175,0 -0.39688,0.39687 -0.39688,1.98437 0,1.47726 -0.0901,1.98438 -0.35278,1.98438 -0.19403,0 -0.43215,-0.0794 -0.52916,-0.17639 z m 5.11527,-3.2632 c 0,-3.26124 0.0274,-3.43958 0.52827,-3.43958 0.36218,0 0.8405,0.5089 1.52136,1.61864 0.54619,0.89025 1.19748,1.87251 1.4473,2.18281 0.4389,0.54515 0.45452,0.49555 0.46302,-1.47073 0.005,-1.1192 0.12787,-2.10849 0.27339,-2.19843 0.17123,-0.10582 0.26458,1.05559 0.26458,3.29168 0,1.90036 -0.0981,3.4552 -0.2179,3.4552 -0.20243,0 -2.69252,-3.56988 -2.69252,-3.86009 0,-0.0719 -0.23812,-0.38639 -0.52916,-0.69878 l -0.52917,-0.568 v 2.56343 c 0,1.53257 -0.1064,2.56344 -0.26458,2.56344 -0.16282,0 -0.26459,-1.32292 -0.26459,-3.43959 z m 5.55773,3.24115 c 8.1e-4,-0.10914 0.11225,-0.61516 0.24764,-1.12448 0.1354,-0.50932 0.37945,-1.43948 0.54233,-2.06701 0.24502,-0.94394 0.39372,-1.12669 0.86115,-1.05833 0.45927,0.0672 0.65345,0.42921 1.03766,1.93471 0.25996,1.01865 0.47538,2.00092 0.4787,2.18282 0.0113,0.61931 -0.72966,0.33345 -0.90054,-0.34742 -0.13807,-0.55008 -0.30586,-0.6625 -0.88858,-0.59531 -0.5117,0.059 -0.7427,0.25411 -0.80293,0.67814 -0.0759,0.53462 -0.57904,0.88161 -0.57543,0.39688 z m 1.84656,-2.11667 c -0.005,-0.51617 -0.43551,-1.31072 -0.6058,-1.11682 -0.0602,0.0686 -0.18801,0.45206 -0.28402,0.85224 -0.14661,0.61114 -0.089,0.7276 0.35966,0.7276 0.33392,0 0.53269,-0.17359 0.53016,-0.46302 z m 2.64988,0.38365 c 0,-1.14947 -0.12855,-2.06001 -0.3175,-2.24896 -0.24694,-0.24695 -0.0559,-0.3166 0.8599,-0.31345 0.82568,0.003 1.0617,0.0772 0.79009,0.24901 -0.296,0.18722 -0.36974,0.71639 -0.31281,2.24491 0.0696,1.8694 0.0388,1.99995 -0.4726,1.99995 -0.50309,0 -0.54708,-0.15531 -0.54708,-1.93146 z m 6.61458,-0.3175 v -2.24896 h 0.94344 c 1.75971,0 2.43015,0.85303 1.65099,2.10065 -0.24492,0.39219 -0.24492,0.66194 0,1.19949 0.41684,0.91485 0.39857,1.19778 -0.0773,1.19778 -0.21633,0 -0.57519,-0.43527 -0.79747,-0.96725 -0.36095,-0.86388 -0.36133,-1.01456 -0.004,-1.4099 0.22032,-0.24345 0.40059,-0.63744 0.40059,-0.87552 0,-0.46551 -0.88003,-1.07078 -1.15584,-0.79497 -0.0919,0.0919 -0.16708,1.04021 -0.16708,2.10736 0,1.5483 -0.0802,1.94028 -0.39687,1.94028 -0.32165,0 -0.39688,-0.42628 -0.39688,-2.24896 z m 4.0242,0.0661 0.0768,-2.18281 1.15028,-0.0826 c 0.7791,-0.056 1.09282,0.0103 0.97224,0.20546 -0.0979,0.15844 -0.31789,0.2708 -0.48882,0.2497 -0.7478,-0.0923 -0.97224,0.066 -0.97224,0.68579 0,0.47837 0.14216,0.66146 0.51356,0.66146 0.28245,0 0.58713,0.11906 0.67707,0.26459 0.0931,0.15069 -0.13513,0.26458 -0.53032,0.26458 -0.62324,0 -0.6854,0.0874 -0.61092,0.85874 0.0688,0.7131 0.21752,0.88728 0.87665,1.02703 0.6625,0.14046 0.58416,0.17346 -0.47372,0.19959 l -1.26747,0.0313 z m -47.18169,-6.8995 c -1.60858,-0.59832 -2.55022,-1.4473 -3.29604,-2.9717 -1.31821,-2.69433 -0.54365,-5.96837 1.80944,-7.64845 1.62675,-1.16148 3.87888,-1.26661 5.71582,-0.26683 0.75269,0.40967 1.65777,1.19179 2.07406,1.7923 0.63061,0.90968 0.75182,1.37826 0.82908,3.20507 0.0869,2.05484 0.0554,2.19192 -0.79375,3.45909 -1.46311,2.18323 -4.19113,3.22929 -6.33861,2.43052 z m 3.2387,-0.59219 c 1.2537,-0.64831 2.07896,-2.69346 2.07498,-5.14216 -0.005,-3.15788 -1.25713,-5.20498 -3.33903,-5.45954 -2.09348,-0.25598 -3.7496,1.73714 -3.99622,4.80941 -0.35289,4.39628 2.30347,7.32131 5.26027,5.79229 z m 41.40557,0.66956 c -0.8958,-0.26821 -2.06248,-1.28904 -1.85566,-1.62368 0.0792,-0.12812 0.50137,0.0678 0.93819,0.43534 1.11287,0.93642 2.63115,0.92346 3.38024,-0.0289 1.16595,-1.48227 0.54447,-2.86528 -1.82508,-4.06143 -1.85239,-0.93508 -2.65363,-1.86973 -2.65363,-3.09546 0,-2.0174 1.30492,-3.25847 3.4261,-3.25847 1.09345,0 1.48065,0.13635 2.19194,0.77188 0.47513,0.42454 0.77585,0.85992 0.66826,0.96751 -0.1076,0.1076 -0.48879,-0.12069 -0.84708,-0.5073 -1.31189,-1.41555 -3.61068,-0.66191 -3.66349,1.20106 -0.0347,1.2254 0.34086,1.65897 2.28919,2.64248 1.90627,0.96228 2.2468,1.27986 2.5715,2.39824 0.49397,1.70136 -0.33306,3.33211 -2.06386,4.0696 -0.95123,0.40531 -1.44321,0.42245 -2.55662,0.0891 z m -64.62803,-0.39172 c -0.0846,-0.22045 -0.0952,-0.62515 -0.0234,-0.89932 0.12272,-0.46931 -0.0188,-0.49071 -2.41757,-0.36567 -1.70718,0.089 -2.80985,0.0247 -3.34168,-0.19491 -0.7853,-0.32424 -0.77511,-0.33095 0.95599,-0.6296 1.01704,-0.17546 2.18183,-0.58781 2.7816,-0.98471 0.56752,-0.37557 1.26841,-0.75777 1.55754,-0.84933 0.48833,-0.15465 0.5257,-0.40616 0.5257,-3.53805 v -3.37156 l 0.92604,-0.13769 c 0.50932,-0.0757 2.05714,-0.0712 3.43958,0.0101 l 2.51355,0.14779 -2.44236,0.0506 c -2.83259,0.0587 -2.80305,0.0258 -2.665,2.96922 l 0.0803,1.71163 2.24748,0.0779 c 3.1298,0.10847 3.41254,0.58357 0.34729,0.58357 -1.94975,0 -2.43631,0.0793 -2.56646,0.41851 -0.0883,0.23019 -0.1606,1.53987 -0.1606,2.91042 v 2.4919 h -0.80205 c -0.47238,0 -0.86528,-0.16475 -0.95587,-0.40083 z m 9.34264,0.22444 c -0.097,-0.097 -0.17639,-2.64412 -0.17639,-5.66023 0,-5.81417 0.0348,-5.96847 1.24521,-5.5185 0.574,0.21339 0.58371,0.30114 0.58227,5.26107 -8.1e-4,2.77423 0.071,5.16125 0.15948,5.30447 0.0885,0.14323 1.16595,0.26042 2.39428,0.26042 1.31251,0 2.23335,0.10909 2.23335,0.26458 0,0.29532 -6.14686,0.37953 -6.4382,0.0882 z m 34.10055,-1.01712 c -0.19408,-1.29426 -0.15269,-9.31272 0.0509,-9.85284 0.0906,-0.24041 1.03212,-0.33073 3.44772,-0.33073 3.72092,0 4.27458,0.18405 0.89975,0.29909 -1.20956,0.0412 -2.26671,0.18419 -2.34921,0.31769 -0.0825,0.13349 -0.16361,1.15066 -0.18023,2.26036 l -0.0302,2.01765 2.11574,0.0785 c 2.95862,0.1097 3.23291,0.58301 0.33787,0.58301 h -2.28244 l -0.0901,2.3151 c -0.0495,1.27331 -0.0455,2.46394 0.009,2.64584 0.0695,0.23237 0.79866,0.33073 2.45187,0.33073 1.39224,0 2.35294,0.10802 2.35294,0.26458 0,0.16215 -1.26881,0.26458 -3.27725,0.26458 h -3.27725 z m 9.5557,1.01712 c -0.097,-0.097 -0.17639,-2.65685 -0.17639,-5.68854 v -5.51215 l 0.99219,-0.0208 c 2.46951,-0.0519 4.45388,0.0839 4.95,0.33872 1.32847,0.68233 1.73073,1.31564 1.73073,2.72483 0,1.51709 -0.58258,2.3234 -1.91823,2.6549 -0.40018,0.0993 -0.7276,0.28938 -0.7276,0.42236 0,0.13297 0.59217,1.27811 1.31594,2.54475 0.72469,1.26825 1.21468,2.40424 1.09057,2.52835 -0.12396,0.12396 -0.54911,0.18631 -0.94479,0.13855 -0.62057,-0.0749 -0.91448,-0.46848 -2.13944,-2.86495 l -1.42005,-2.77813 1.04181,-0.26458 c 1.52314,-0.38683 1.982,-0.96923 1.982,-2.51564 0,-1.80242 -0.63704,-2.42056 -2.54829,-2.4727 l -1.42046,-0.0387 -0.0715,5.49011 -0.0715,5.4901 h -0.74428 c -0.40936,0 -0.82366,-0.0794 -0.92068,-0.17639 z m -21.58399,-3.07747 c -0.63157,-1.63012 -1.59841,-4.1247 -2.14853,-5.54353 l -1.00021,-2.57969 h 0.90676 c 0.69128,0 0.96505,0.14147 1.15204,0.59531 0.23645,0.57389 1.8815,4.84487 2.44966,6.35997 0.38603,1.02941 0.74489,0.78894 1.32109,-0.88524 0.55806,-1.62145 0.54057,-1.79934 -0.42116,-4.2841 l -0.69125,-1.78594 h 0.899 0.89901 l 1.51591,3.85344 c 0.93547,2.37794 1.61021,3.75913 1.76218,3.60716 0.27461,-0.27461 2.32288,-5.72952 2.3361,-6.22145 0.0123,-0.4582 0.75103,-1.36165 0.95038,-1.16231 0.15015,0.15016 -0.592,2.54957 -1.24471,4.0242 -0.12882,0.29104 -0.72615,1.89839 -1.3274,3.57188 -0.60125,1.67349 -1.18021,3.13743 -1.28657,3.2532 -0.10637,0.11578 -0.65386,-1.04655 -1.21663,-2.58295 -0.56278,-1.53641 -1.1377,-2.75531 -1.27761,-2.70867 -0.1399,0.0466 -0.68423,1.23294 -1.20962,2.63624 -0.52539,1.4033 -1.01485,2.61105 -1.08769,2.68389 -0.0728,0.0728 -0.64917,-1.2013 -1.28075,-2.83141 z m -48.574695,-3.58235 c -4.167249,-2.65223 -8.626402,-6.67346 -14.832874,-13.37619 -3.812304,-4.11713 -4.348676,-4.73244 -4.349094,-4.98916 -1.78e-4,-0.10914 -0.170476,-0.19844 -0.37844,-0.19844 -0.391802,0 -0.673898,1.07359 -1.216631,4.63021 -0.638197,4.18222 -1.298536,6.20058 -2.383622,7.28566 -0.418093,0.4181 -0.739232,0.48126 -1.771866,0.34851 -0.693673,-0.0892 -1.350894,-0.24233 -1.460493,-0.34034 -0.431778,-0.38613 3.162039,-11.54146 6.27076,-19.46466 0.685153,-1.74625 1.716418,-4.54396 2.2917,-6.21712 0.575283,-1.67317 1.347067,-3.49711 1.715075,-4.05321 0.943574,-1.42584 0.775974,-1.85521 -0.812862,-2.08249 -1.64033,-0.23464 -2.378116,-0.62231 -2.753886,-1.44703 -0.572713,-1.25697 -0.138236,-3.53036 0.674703,-3.53036 0.194923,0 0.354405,-0.16397 0.354405,-0.36438 0,-0.36527 2.215803,-2.39627 3.273063,-3.00009 0.309868,-0.17697 1.357899,-0.63036 2.328958,-1.00753 1.857926,-0.72165 2.306871,-1.17793 2.857334,-2.90404 0.185629,-0.58208 0.727633,-1.71318 1.204453,-2.51354 0.476821,-0.80037 1.521918,-2.7649 2.322437,-4.36563 2.588832,-5.17665 4.167108,-7.882179 7.022714,-12.038539 2.642536,-3.84623 6.950181,-9.33107 8.082341,-10.29107 0.27538,-0.23351 0.75164,-0.71105 1.05835,-1.06121 0.30671,-0.35015 0.90407,-0.94547 1.32747,-1.32291 0.42341,-0.37745 1.13778,-1.04406 1.5875,-1.48135 2.0798,-2.022351 6.85362,-5.612636 9.54893,-7.181547 5.06017,-2.945471 9.4903,-3.761243 15.61042,-2.874532 1.4552,0.210838 3.10224,0.387117 3.66007,0.391731 0.69153,0.0057 0.97893,0.113619 0.90328,0.339119 -0.0847,0.252584 -1.23087,0.309985 -4.8507,0.242935 -4.48745,-0.08312 -4.86649,-0.05051 -7.12099,0.612626 -1.30968,0.385231 -3.39328,1.241342 -4.63021,1.902468 -2.12423,1.135384 -6.50774,4.179407 -8.40271,5.83505 -4.61824,4.03501 -5.41906,4.91813 -10.00276,11.03071 -2.610068,3.48067 -4.886152,6.47024 -5.057967,6.6435 -0.663261,0.66882 -3.312371,4.940269 -3.968148,6.398269 -0.378942,0.84251 -0.839311,1.71043 -1.02304,1.92871 -0.47418,0.56336 -3.824545,7.23931 -3.824545,7.62081 0,0.50789 0.548932,0.3653 2.368967,-0.61536 0.939129,-0.50602 2.040457,-0.92003 2.447395,-0.92003 0.664088,0 0.739888,0.0916 0.739888,0.89364 0,0.49151 -0.148828,1.00946 -0.330729,1.151 -0.344715,0.26824 -3.377734,1.40445 -5.570061,2.08662 -0.70942,0.22075 -1.333527,0.59352 -1.413102,0.84403 -0.07839,0.24676 -0.650784,1.57976 -1.271997,2.96221 -1.291898,2.87499 -1.850327,4.46864 -1.63967,4.6793 0.384535,0.38453 4.339612,-0.0837 10.655535,-1.26153 4.429522,-0.82603 11.814824,-3.48502 22.721074,-8.18046 5.4067,-2.32773 11.236,-4.76231 11.40276,-4.76231 0.3263,0 5.02648,-2.89657 5.66286,-3.48984 0.36381,-0.33916 1.19544,-1.03214 1.84809,-1.53997 0.65264,-0.50782 1.97857,-1.72242 2.9465,-2.69911 1.54759,-1.56157 2.22013,-2.38448 4.59812,-5.626169 0.29104,-0.39675 0.76875,-1.16057 1.06157,-1.69737 0.29282,-0.5368 0.79884,-1.31471 1.12448,-1.7287 0.32564,-0.41399 0.59208,-0.86819 0.59208,-1.00933 0,-0.14114 0.29551,-0.84497 0.65668,-1.56405 0.36118,-0.71909 0.96982,-2.33402 1.35253,-3.58874 0.59029,-1.93527 0.6798,-2.64801 0.5901,-4.69893 -0.13389,-3.06125 -0.95568,-4.894668 -3.16999,-7.07223 -0.84408,-0.830077 -1.41461,-1.583445 -1.26785,-1.674151 0.44169,-0.272976 2.6701,1.193995 4.21978,2.777887 2.10558,2.152077 2.75042,3.590084 2.86625,6.391794 0.14978,3.62287 -1.27005,7.82383 -4.75534,14.06993 -1.35545,2.429149 -2.10828,3.416599 -4.18147,5.484649 -2.65499,2.64841 -6.3849,5.68285 -7.95236,6.46959 -0.50932,0.25564 -1.10463,0.61695 -1.32292,0.8029 -1.00229,0.85387 -7.01499,3.86282 -12.17083,6.09069 -2.25557,0.97464 -4.63682,2.00644 -5.29167,2.29287 -4.99735,2.1859 -13.78589,5.0151 -18.653128,6.0048 -2.752728,0.55974 -8.216937,1.25846 -11.964706,1.52995 -1.582121,0.11462 -2.288473,0.28282 -2.59089,0.61699 -0.228672,0.25268 -0.869252,1.75416 -1.423511,3.33662 -0.55426,1.58247 -1.731347,4.72268 -2.61575,6.97825 -2.073858,5.28915 -2.14033,5.55625 -1.382749,5.55625 2.307995,0 9.601573,-3.71985 12.576776,-6.41437 1.859337,-1.68393 2.352797,-2.76659 2.149124,-4.71523 -0.148443,-1.42022 -0.124973,-1.5085 0.366883,-1.37987 0.289008,0.0756 0.835927,0.50637 1.215374,0.95732 0.621015,0.73803 0.676978,0.98093 0.560453,2.43259 -0.333977,4.16065 -4.2062,6.99928 -13.559754,9.9403 -2.182813,0.68634 -3.96875,1.36345 -3.96875,1.50468 0,0.82349 9.989375,11.02278 15.478125,15.80337 1.81901,1.58432 3.366823,2.94594 3.439583,3.02583 0.07276,0.0799 0.582919,0.53199 1.133686,1.00468 1.423164,1.22143 0.483115,1.12566 -1.530561,-0.15593 z M 78.70884,125.36771 c 0.144104,-0.1819 0.499729,-0.98557 0.790277,-1.78594 0.290549,-0.80036 0.7808,-2.08028 1.089446,-2.84427 0.544652,-1.34816 0.444462,-1.73741 -0.2721,-1.05714 -0.192295,0.18255 -0.979425,0.85244 -1.749176,1.48862 -0.769752,0.63619 -1.573424,1.49295 -1.785938,1.90391 -0.400588,0.77465 -0.517777,2.14138 -0.21,2.44916 0.304449,0.30445 1.863199,0.1919 2.137491,-0.15434 z m -49.652241,35.87401 c -1.051439,-0.22606 -4.631597,-1.8792 -4.733812,-2.18584 -0.137115,-0.41135 0.283481,-0.35364 1.811095,0.24849 1.965796,0.77484 4.254645,1.01688 7.325451,0.77463 7.461766,-0.58863 12.779461,-3.82137 14.461361,-8.79137 0.808801,-2.39 0.400643,-6.74327 -0.697168,-7.43575 -1.147063,-0.72355 -10.801931,1.80486 -14.983686,3.92392 -1.842375,0.9336 -5.518035,3.44859 -6.73146,4.60585 -1.381136,1.3172 -2.537255,3.0749 -2.785494,4.23491 l -0.206331,0.96417 -0.445172,-0.84676 c -0.655459,-1.24674 -0.556734,-1.8818 0.579774,-3.72949 0.828214,-1.34648 1.507039,-2.00998 3.540885,-3.46095 1.38393,-0.98731 2.976599,-2.00751 3.539265,-2.26712 0.562666,-0.25961 1.57252,-0.81765 2.244119,-1.2401 1.348602,-0.84828 5.907696,-2.21608 10.878945,-3.26385 1.776681,-0.37446 3.327366,-0.77788 3.445967,-0.89648 0.118601,-0.1186 -0.187044,-0.80104 -0.679212,-1.51652 -0.492167,-0.71549 -1.090596,-1.67942 -1.329843,-2.14207 -0.356256,-0.68892 -3.04864,-4.09535 -3.621099,-4.58145 -0.08569,-0.0728 -0.974429,-1.14432 -1.974982,-2.38125 -3.795946,-4.69271 -5.020359,-7.36728 -5.026722,-10.98021 -0.004,-2.24835 0.159397,-2.8223 1.681145,-5.90671 0.702319,-1.42352 1.588883,-2.58844 3.339794,-4.38838 2.029264,-2.0861 2.718041,-2.60826 4.632625,-3.512 2.743464,-1.29499 3.386786,-1.53731 5.46215,-2.05739 2.147658,-0.5382 6.204669,-0.5285 8.049724,0.0192 1.767139,0.52461 4.35092,1.80598 5.380325,2.66825 1.874943,1.57054 4.36989,5.26647 4.385323,6.49627 0.01177,0.93745 -0.876926,0.40718 -3.11993,-1.86164 -1.862849,-1.88429 -2.724254,-2.53379 -4.547175,-3.42856 -2.657448,-1.3044 -3.978797,-1.63991 -6.492849,-1.64864 -6.062786,-0.0211 -11.574894,3.73744 -14.735673,10.0477 -1.076422,2.14899 -1.126544,2.35537 -1.127632,4.64304 -0.0017,3.57392 0.486761,4.43872 9.10878,16.12675 0.536739,0.7276 1.385489,1.88348 1.886111,2.56861 0.500621,0.68513 1.070112,1.31071 1.265533,1.39019 0.38707,0.15741 5.347762,-0.51311 7.053021,-0.95333 1.467263,-0.37879 2.198325,-1.15834 4.536099,-4.83695 2.320237,-3.65102 3.539281,-5.05347 4.735873,-5.44838 1.114651,-0.36786 1.755804,-0.0948 3.763454,1.60305 1.632609,1.38065 1.648949,1.40812 1.648949,2.77235 0,1.60474 -0.415288,2.25506 -2.344364,3.67113 -2.211734,1.62356 -4.120393,2.47836 -6.306764,2.82449 -1.886945,0.29872 -2.150029,0.41835 -3.059023,1.39095 -0.546989,0.58527 -1.117125,1.51943 -1.266969,2.0759 -0.149843,0.55648 -0.372787,1.01178 -0.49543,1.01178 -0.122643,0 -0.683601,1.0418 -1.246573,2.3151 l -1.023585,2.31511 0.02336,3.50573 c 0.01285,1.92815 -0.04668,3.50198 -0.132291,3.49741 -0.751297,-0.0401 -1.610858,-3.48028 -1.610858,-6.447 0,-1.26239 0.967671,-4.26061 2.136238,-6.6189 0.426472,-0.86066 0.718494,-1.62175 0.648937,-1.6913 -0.157913,-0.15792 -5.550826,0.75419 -5.962099,1.00837 -0.217047,0.13415 -0.138088,0.72366 0.282304,2.10771 0.88614,2.91743 0.503198,5.9463 -1.053016,8.3288 -1.913899,2.9301 -5.615474,5.50613 -9.625959,6.69897 -1.765998,0.52526 -2.882091,0.66113 -6.005571,0.73108 -2.110052,0.0472 -4.12419,0.0241 -4.475862,-0.0516 z m 32.866928,-22.17258 c 4.576647,-1.66002 6.474216,-3.6775 6.067208,-6.45063 -0.339205,-2.31115 -2.617097,-1.23424 -5.051168,2.38802 -0.457659,0.68106 -0.832106,1.31763 -0.832106,1.41461 0,0.097 -0.47625,0.71736 -1.058334,1.37864 -0.582083,0.66128 -1.058333,1.36416 -1.058333,1.56195 0,0.44742 -0.184434,0.47534 1.932733,-0.29259 z m 34.605848,20.5447 c -0.159866,-0.29871 -0.290665,-0.60349 -0.290665,-0.67728 0,-0.0738 0.744141,-0.52331 1.653642,-0.99891 2.234048,-1.16826 8.347638,-7.30857 11.014868,-11.06304 3.38221,-4.7609 5.01674,-9.00938 3.89701,-10.12911 -1.06039,-1.06039 -0.15224,-1.19103 1.55845,-0.22418 1.84395,1.04216 1.83512,2.96543 -0.0304,6.6152 -4.2008,8.21876 -16.252958,19.3735 -17.802945,16.47732 z m -39.382852,-0.43432 c -0.955946,-0.42536 -1.096351,-0.79262 -0.396875,-1.03813 1.963018,-0.68899 2.01965,-0.7283 4.524601,-3.14035 0.717847,-0.69122 1.437109,-1.25677 1.59836,-1.25677 0.184145,0 0.290068,0.61502 0.284805,1.65365 l -0.0084,1.65364 -1.645266,1.10348 c -1.912377,1.28262 -3.132412,1.56947 -4.357245,1.02448 z m 75.382857,-0.67577 c 0.0711,-0.4828 0.41025,-0.71223 1.643,-1.11137 1.87804,-0.60807 2.62715,-1.05961 3.97173,-2.39403 0.98082,-0.97342 1.02033,-1.07799 0.87404,-2.31319 -0.18994,-1.60381 -0.84132,-2.91202 -1.44508,-2.90228 -0.94511,0.0152 -5.37782,3.98188 -6.84839,6.12831 -0.87815,1.28174 -2.21551,1.89895 -2.8152,1.29926 -0.7907,-0.79069 1.6061,-4.42081 4.16432,-6.30716 0.86435,-0.63735 1.82315,-1.41971 2.13067,-1.7386 0.30751,-0.31889 0.89914,-0.82265 1.31472,-1.11948 l 0.75561,-0.5397 -1.49721,-2.86736 c -1.73609,-3.32485 -1.91874,-4.69032 -0.92725,-6.93175 1.07006,-2.41906 7.1612,-8.91972 10.44279,-11.1449 1.76598,-1.19747 3.88066,-2.29805 4.87303,-2.53614 1.29421,-0.31052 5.58361,-0.71583 5.84777,-0.55257 0.15706,0.0971 0.022,0.42521 -0.32852,0.79835 -0.49499,0.5269 -0.85313,0.63355 -2.12746,0.63355 -1.26287,0 -1.83789,0.16799 -3.27055,0.95548 -0.95606,0.52552 -2.24008,1.42741 -2.85338,2.00421 -0.6133,0.57679 -1.64131,1.48628 -2.28446,2.02108 -0.64315,0.53479 -1.56147,1.38907 -2.04071,1.8984 -2.57956,2.74147 -3.92397,4.32351 -4.64828,5.46993 -0.44373,0.70232 -0.90214,1.33805 -1.01869,1.41275 -0.11656,0.0747 -0.35467,0.70272 -0.52914,1.39562 -0.28231,1.12115 -0.25284,1.4364 0.26777,2.86422 0.71866,1.97099 1.54644,3.40956 1.96193,3.40956 0.17153,0 0.54672,-0.16327 0.83376,-0.36282 0.28704,-0.19955 1.59345,-0.92226 2.90314,-1.60601 1.30969,-0.68375 2.50077,-1.39612 2.64685,-1.58305 0.14608,-0.18693 0.5628,-0.43363 0.92604,-0.54824 0.96324,-0.3039 4.42807,-1.96543 5.89761,-2.82815 1.55337,-0.91193 1.98178,-0.93195 2.19,-0.10235 0.31844,1.26878 0.0598,1.44005 -9.41154,6.23336 -1.38245,0.69963 -3.01631,1.63988 -3.63081,2.08943 l -1.11726,0.81737 1.01639,2.05408 c 1.16429,2.353 1.47531,3.67556 1.09783,4.66842 -0.57075,1.50117 -4.5226,3.53225 -7.37757,3.79174 -1.63556,0.14865 -1.67482,0.13738 -1.5875,-0.45597 z M 93.383622,158.357 c -0.325369,-0.2279 -0.8426,-0.9064 -1.149401,-1.50778 -0.456275,-0.89437 -0.528411,-1.3748 -0.396265,-2.63911 0.189037,-1.80861 1.21392,-5.00645 2.276342,-7.10264 0.99741,-1.96792 4.004284,-6.58073 5.654464,-8.67442 l 1.328198,-1.68518 -1.655688,0.19216 -1.65568,0.19216 0.0865,-0.72379 c 0.0803,-0.6719 0.25719,-0.76963 2.467698,-1.36307 1.30969,-0.35161 2.82157,-0.87209 3.35972,-1.15663 1.31102,-0.69318 3.15122,-0.68743 3.78404,0.0118 0.26339,0.29105 0.75034,0.52917 1.08212,0.52917 0.33177,0 0.93436,0.1259 1.33909,0.27977 1.14084,0.43375 0.29472,0.76975 -1.95037,0.77451 l -1.91041,0.004 -1.68902,1.97953 c -2.28842,2.682 -6.010288,8.0669 -7.462867,10.79747 -1.635047,3.07357 -2.561854,6.23754 -2.337556,7.98005 0.09456,0.73462 0.271119,1.60355 0.392355,1.93097 0.187513,0.50642 0.131426,0.59532 -0.375611,0.59532 -0.327821,0 -0.862249,-0.18647 -1.187619,-0.41436 z m 34.175608,-36.95804 c 0.0912,-0.47294 0.69704,-1.93146 1.34632,-3.24114 0.64927,-1.30969 1.30096,-2.70868 1.4482,-3.10886 0.24345,-0.66169 0.38813,-0.7276 1.59717,-0.7276 1.09023,0 1.32924,0.0833 1.32825,0.46302 -0.001,0.50417 -1.29475,3.94925 -1.96187,5.22552 -0.2282,0.43656 -0.41564,0.93583 -0.41654,1.10948 -0.003,0.57597 -1.16142,1.13948 -2.34253,1.13948 h -1.16483 z"
       id="path1" /></g></svg>
